GIL11_free1_RRA_states
nRows=4
nColumns=47

# SIMM Motion File Header:
name GIL11_free1_RRA_states
datacolumns 47
datarows 4
otherdata 1
range 0.81333000000000055000 0.81483000000000050000
endheader
time	pelvis_tx	pelvis_ty	pelvis_tz	pelvis_tilt	pelvis_list	pelvis_rotation	hip_flexion_r	hip_adduction_r	hip_rotation_r	knee_angle_r	ankle_angle_r	subtalar_angle_r	mtp_angle_r	hip_flexion_l	hip_adduction_l	hip_rotation_l	knee_angle_l	ankle_angle_l	subtalar_angle_l	mtp_angle_l	lumbar_extension	lumbar_bending	lumbar_rotation	pelvis_tx_u	pelvis_ty_u	pelvis_tz_u	pelvis_tilt_u	pelvis_list_u	pelvis_rotation_u	hip_flexion_r_u	hip_adduction_r_u	hip_rotation_r_u	knee_angle_r_u	ankle_angle_r_u	subtalar_angle_r_u	mtp_angle_r_u	hip_flexion_l_u	hip_adduction_l_u	hip_rotation_l_u	knee_angle_l_u	ankle_angle_l_u	subtalar_angle_l_u	mtp_angle_l_u	lumbar_extension_u	lumbar_bending_u	lumbar_rotation_u
      0.81333000000000055000	      1.38819705656420680000	      0.89102776104564241000	     -0.30828953955996841000	     -4.55806157119066220000	      0.10112152812273260000	      5.98148916604436210000	      9.74088123604470370000	      1.76712323259135280000	      5.73877930531483390000	    -12.12631384933479400000	      6.62004981750803800000	      0.00000000000000689610	     -0.00000000000006392829	     17.36654721777745200000	      0.38659967453541000000	     19.69411653703024400000	    -48.27029879530854100000	     -5.53824988406299570000	     -0.00000000000032298835	      0.00000000000043504684	     -4.73355723837253000000	     -2.30490913325315770000	      3.42112238375097190000	      1.06236350064100990000	      0.06084413137655448500	     -0.01874876108205582300	    -12.56081590381233100000	     29.27072431492997500000	    -21.39286738563588500000	   -106.39163192408049000000	    -17.20529552968086800000	     -6.53217474881753010000	     73.85375943885168200000	     26.50174397555924700000	     -0.00000000000015320461	     -0.00000000000003431587	     83.59283119232836200000	     60.31126431398033800000	     45.70430381851886600000	    194.43945354557852000000	    128.71280926120380000000	     -0.00000000000056543931	      0.00000000000181659886	      5.94581376174709320000	    -30.10574712904181300000	     26.62262998515760500000
      0.81383000000000050000	      1.38872811836846850000	      0.89105780655756173000	     -0.30829909725375260000	     -4.56433143618329580000	      0.11574690220487653000	      5.97078998586976170000	      9.68771475782064680000	      1.75850805900491070000	      5.73529158847180920000	    -12.08947225309782600000	      6.63329608507459860000	      0.00000000000000682017	     -0.00000000000006395311	     17.40833048426432900000	      0.41669679752658600000	     19.71676610777566600000	    -48.17292461540121500000	     -5.47402405726615270000	     -0.00000000000032327111	      0.00000000000043595517	     -4.73060382154911710000	     -2.31990968278772680000	      3.43442006078683000000	      1.06188447925664180000	      0.05933731245604143000	     -0.01948092440274831400	    -12.51870904994177600000	     29.23060392173639200000	    -21.40393851751937100000	   -106.27438691477320000000	    -17.25478892391440400000	     -7.41676375427442740000	     73.51310857827599000000	     26.48335579880860300000	     -0.00000000000016212438	     -0.00000000000002399964	     83.54063515772232100000	     60.07703182801098100000	     44.89356351221220400000	    195.05510164806478000000	    128.19322432248492000000	     -0.00000000000056464142	      0.00000000000181582357	      5.86804779205191540000	    -29.89651736751293100000	     26.56813426175915200000
      0.81433000000000055000	      1.38925894180092050000	      0.89108709775460004000	     -0.30830901939503075000	     -4.57058034710442660000	      0.13035196019503226000	      5.96008514112967000000	      9.63460675382949280000	      1.74986905627881510000	      5.73136447199267800000	    -12.05280028335286800000	      6.64653321344879800000	      0.00000000000000673701	     -0.00000000000006396245	     17.45008825853060900000	      0.44667650884955262000	     19.73900968318097800000	    -48.07524586498120600000	     -5.41005393021029680000	     -0.00000000000032355352	      0.00000000000043686282	     -4.72768899427555580000	     -2.33480571245744310000	      3.44769057583049770000	      1.06141000323534130000	      0.05782687442710400500	     -0.02020655081246533100	    -12.47700340999745400000	     29.18945249263951100000	    -21.41552799470740400000	   -106.15771392606572000000	    -17.30060659886132200000	     -8.28976912810031760000	     73.17520270411289100000	     26.46520911624620400000	     -0.00000000000017062227	     -0.00000000000001926505	     83.49087273755445400000	     59.84161456659660400000	     44.08032007066859100000	    195.65772105512212000000	    127.69001726620282000000	     -0.00000000000056432544	      0.00000000000181561306	      5.79145972425233160000	    -29.68765889347890100000	     26.51398548697620700000
      0.81483000000000050000	      1.38978952913845100000	      0.89111563284266615000	     -0.30831930270855407000	     -4.57680850794794920000	      0.14493618203548830000	      5.94937437475920830000	      9.58155694929909530000	      1.74120806424254450000	      5.72700377189025640000	    -12.01629658993479700000	      6.65976134641181790000	      0.00000000000000665125	     -0.00000000000006396330	     17.49182175698811600000	      0.47653821716503308000	     19.76084603117599800000	    -47.97726905068406500000	     -5.34633135804699930000	     -0.00000000000032383556	      0.00000000000043777084	     -4.72481216215547040000	     -2.34959740512406870000	      3.46093409820628350000	      1.06094012832929630000	      0.05631290234234635100	     -0.02092560029589239600	    -12.43570792734046100000	     29.14726517930034800000	    -21.42761612887862600000	   -106.04160873854940000000	    -17.34275323866701900000	     -9.15105822085496000000	     72.84006016289613700000	     26.44737636639320800000	     -0.00000000000017859427	      0.00000000000000722246	     83.44351023309256700000	     59.60502807423328200000	     43.26469775355877100000	    196.24740172007873000000	    127.20290257899502000000	     -0.00000000000056327844	      0.00000000000181641709	      5.71606974114510270000	    -29.47918137385790900000	     26.46014834650157300000
